<?xml version="1.0" encoding="UTF-8" standalone="no"?>
<svg viewBox="0 0 800 600" xmlns="http://www.w3.org/2000/svg">
  <!-- Background -->
  <rect x="0" y="0" width="800" height="600" fill="#f5f7fa" />
  
  <!-- Header Bar -->
  <rect x="0" y="0" width="800" height="60" fill="#ffffff" stroke="#e1e5eb" stroke-width="1" />
  <circle cx="40" cy="30" r="20" fill="#4c6ef5" opacity="0.9" />
  <path d="M30 30 L40 20 L50 30 L40 40 Z" fill="white" />
  <text x="75" y="35" font-family="Arial" font-size="16" fill="#333">OpenPass</text>
  
  <!-- Search Bar -->
  <rect x="200" y="15" width="400" height="30" rx="15" fill="white" stroke="#d0d7de" stroke-width="1" />
  <circle cx="215" cy="30" r="8" fill="white" stroke="#999" stroke-width="1" />
  <line x1="221" y1="36" x2="225" y2="40" stroke="#999" stroke-width="1" />
  <text x="235" y="35" font-family="Arial" font-size="14" fill="#999">Search passwords, notes, tags...</text>
  
  <!-- User Menu -->
  <circle cx="760" cy="30" r="15" fill="#edf2ff" />
  <text x="760" y="35" font-family="Arial" font-size="14" text-anchor="middle" fill="#4c6ef5">JD</text>
  
  <!-- Sidebar -->
  <rect x="0" y="60" width="200" height="540" fill="#ffffff" stroke="#e1e5eb" stroke-width="1" />
  
  <rect x="20" y="90" width="160" height="40" rx="5" fill="#edf2ff" />
  <text x="60" y="115" font-family="Arial" font-size="14" fill="#4c6ef5">All Items</text>
  
  <text x="60" y="165" font-family="Arial" font-size="14" fill="#666">Favorites</text>
  <text x="60" y="205" font-family="Arial" font-size="14" fill="#666">Passwords</text>
  <text x="60" y="245" font-family="Arial" font-size="14" fill="#666">Passphrases</text>
  <text x="60" y="285" font-family="Arial" font-size="14" fill="#666">Secure Notes</text>
  
  <text x="30" y="345" font-family="Arial" font-size="12" font-weight="bold" fill="#999">TAGS</text>
  <text x="60" y="375" font-family="Arial" font-size="14" fill="#666">Work</text>
  <text x="60" y="405" font-family="Arial" font-size="14" fill="#666">Personal</text>
  <text x="60" y="435" font-family="Arial" font-size="14" fill="#666">Finance</text>
  
  <rect x="20" y="540" width="160" height="40" rx="5" fill="#4c6ef5" opacity="0.1" />
  <text x="60" y="565" font-family="Arial" font-size="14" fill="#4c6ef5">+ Add New</text>
  
  <!-- Main Content Area -->
  <rect x="200" y="60" width="600" height="60" fill="#ffffff" stroke="#e1e5eb" stroke-width="1" />
  <text x="230" y="100" font-family="Arial" font-size="18" font-weight="bold" fill="#333">All Items (12)</text>
  
  <!-- Sort/Filter Options -->
  <rect x="630" y="80" width="150" height="30" rx="5" fill="white" stroke="#d0d7de" stroke-width="1" />
  <text x="660" y="100" font-family="Arial" font-size="14" fill="#666">Sort: Recent</text>
  
  <!-- Password Cards -->
  <rect x="220" y="140" width="260" height="100" rx="5" fill="white" stroke="#e1e5eb" stroke-width="1" />
  <circle cx="250" cy="170" r="15" fill="#4c6ef5" opacity="0.2" />
  <text x="250" y="175" font-family="Arial" font-size="12" text-anchor="middle" fill="#4c6ef5">G</text>
  <text x="280" y="165" font-family="Arial" font-size="16" fill="#333">Google Account</text>
  <text x="280" y="185" font-family="Arial" font-size="14" fill="#666">•••••••••••••</text>
  <text x="280" y="210" font-family="Arial" font-size="12" fill="#999">Last updated: 3 days ago</text>
  <circle cx="450" cy="170" r="12" fill="#f8f9fa" stroke="#e1e5eb" stroke-width="1" />
  <path d="M444 170 L450 176 L456 170" stroke="#666" stroke-width="1.5" fill="none" />
  
  <rect x="500" y="140" width="260" height="100" rx="5" fill="white" stroke="#e1e5eb" stroke-width="1" />
  <circle cx="530" cy="170" r="15" fill="#4c6ef5" opacity="0.2" />
  <text x="530" y="175" font-family="Arial" font-size="12" text-anchor="middle" fill="#4c6ef5">A</text>
  <text x="560" y="165" font-family="Arial" font-size="16" fill="#333">Amazon</text>
  <text x="560" y="185" font-family="Arial" font-size="14" fill="#666">•••••••••••••</text>
  <text x="560" y="210" font-family="Arial" font-size="12" fill="#999">Last updated: 1 week ago</text>
  <circle cx="730" cy="170" r="12" fill="#f8f9fa" stroke="#e1e5eb" stroke-width="1" />
  <path d="M724 170 L730 176 L736 170" stroke="#666" stroke-width="1.5" fill="none" />
  
  <rect x="220" y="260" width="260" height="100" rx="5" fill="white" stroke="#e1e5eb" stroke-width="1" />
  <circle cx="250" cy="290" r="15" fill="#4c6ef5" opacity="0.2" />
  <text x="250" y="295" font-family="Arial" font-size="12" text-anchor="middle" fill="#4c6ef5">N</text>
  <text x="280" y="285" font-family="Arial" font-size="16" fill="#333">Netflix</text>
  <text x="280" y="305" font-family="Arial" font-size="14" fill="#666">•••••••••••••</text>
  <text x="280" y="330" font-family="Arial" font-size="12" fill="#999">Last updated: 2 weeks ago</text>
  <circle cx="450" cy="290" r="12" fill="#f8f9fa" stroke="#e1e5eb" stroke-width="1" />
  <path d="M444 290 L450 296 L456 290" stroke="#666" stroke-width="1.5" fill="none" />
  
  <rect x="500" y="260" width="260" height="100" rx="5" fill="white" stroke="#e1e5eb" stroke-width="1" />
  <circle cx="530" cy="290" r="15" fill="#4c6ef5" opacity="0.2" />
  <text x="530" y="295" font-family="Arial" font-size="12" text-anchor="middle" fill="#4c6ef5">F</text>
  <text x="560" y="285" font-family="Arial" font-size="16" fill="#333">Facebook</text>
  <text x="560" y="305" font-family="Arial" font-size="14" fill="#666">•••••••••••••</text>
  <text x="560" y="330" font-family="Arial" font-size="12" fill="#999">Last updated: 3 weeks ago</text>
  <circle cx="730" cy="290" r="12" fill="#f8f9fa" stroke="#e1e5eb" stroke-width="1" />
  <path d="M724 290 L730 296 L736 290" stroke="#666" stroke-width="1.5" fill="none" />
  
  <!-- Floating Action Button -->
  <circle cx="730" cy="530" r="30" fill="#4c6ef5" />
  <text x="730" y="538" font-family="Arial" font-size="24" text-anchor="middle" fill="white">+</text>
</svg>