<?xml version="1.0" encoding="UTF-8" standalone="no"?>
<svg viewBox="0 0 800 600" xmlns="http://www.w3.org/2000/svg">
  <!-- Background -->
  <rect x="0" y="0" width="800" height="600" fill="#f5f7fa" />
  
  <!-- Login Card -->
  <rect x="250" y="100" width="300" height="400" rx="10" fill="white" stroke="#e1e5eb" stroke-width="2" />
  
  <!-- Logo Area -->
  <circle cx="400" cy="160" r="40" fill="#4c6ef5" opacity="0.9" />
  <path d="M380 160 L400 140 L420 160 L400 180 Z" fill="white" />
  <text x="400" y="230" font-family="Arial" font-size="20" text-anchor="middle" fill="#333">OpenPass</text>
  
  <!-- Form Fields -->
  <rect x="280" y="260" width="240" height="45" rx="5" fill="white" stroke="#d0d7de" stroke-width="1" />
  <text x="295" y="288" font-family="Arial" font-size="14" fill="#999">Email</text>
  
  <rect x="280" y="320" width="240" height="45" rx="5" fill="white" stroke="#d0d7de" stroke-width="1" />
  <text x="295" y="348" font-family="Arial" font-size="14" fill="#999">Password</text>
  <circle cx="500" cy="342" r="8" fill="white" stroke="#999" stroke-width="1" />
  <path d="M497 342 L503 342 M500 339 L500 345" stroke="#999" stroke-width="1" />
  
  <!-- Login Button -->
  <rect x="280" y="380" width="240" height="45" rx="5" fill="#4c6ef5" />
  <text x="400" y="410" font-family="Arial" font-size="16" text-anchor="middle" fill="white">Login</text>
  
  <!-- Additional Options -->
  <text x="320" y="450" font-family="Arial" font-size="13" fill="#999">Forgot Password?</text>
  <text x="480" y="450" font-family="Arial" font-size="13" text-anchor="end" fill="#4c6ef5">Register</text>
  
  <!-- Biometric Option -->
  <circle cx="400" cy="480" r="15" fill="white" stroke="#d0d7de" stroke-width="1" />
  <path d="M392 480 C392 476 396 472 400 472 C404 472 408 476 408 480 C408 488 400 488 400 488" stroke="#999" stroke-width="1.5" fill="none" />
  <circle cx="400" cy="492" r="1" fill="#999" />
</svg>