<?xml version="1.0" encoding="UTF-8" standalone="no"?>
<svg viewBox="0 0 800 600" xmlns="http://www.w3.org/2000/svg">
  <!-- Background -->
  <rect x="0" y="0" width="800" height="600" fill="#f5f7fa" />
  
  <!-- Header Bar -->
  <rect x="0" y="0" width="800" height="60" fill="#ffffff" stroke="#e1e5eb" stroke-width="1" />
  <circle cx="40" cy="30" r="20" fill="#4c6ef5" opacity="0.9" />
  <path d="M30 30 L40 20 L50 30 L40 40 Z" fill="white" />
  <text x="75" y="35" font-family="Arial" font-size="16" fill="#333">OpenPass</text>
  
  <!-- Back Button -->
  <circle cx="230" cy="100" r="15" fill="#ffffff" stroke="#d0d7de" stroke-width="1" />
  <path d="M235 95 L225 100 L235 105" stroke="#666" stroke-width="1.5" fill="none" />
  <text x="260" y="105" font-family="Arial" font-size="14" fill="#666">Back to Vault</text>
  
  <!-- Main Content -->
  <rect x="200" y="130" width="550" height="440" rx="10" fill="white" stroke="#e1e5eb" stroke-width="1" />
  
  <!-- Password Header -->
  <circle cx="240" cy="180" r="25" fill="#4c6ef5" opacity="0.2" />
  <text x="240" y="188" font-family="Arial" font-size="18" text-anchor="middle" fill="#4c6ef5">G</text>
  <text x="290" y="175" font-family="Arial" font-size="22" font-weight="bold" fill="#333">Google Account</text>
  <text x="290" y="200" font-family="Arial" font-size="14" fill="#999">myemail@gmail.com</text>
  
  <!-- Edit/Delete Buttons -->
  <rect x="630" y="165" width="80" height="30" rx="5" fill="#ffffff" stroke="#4c6ef5" stroke-width="1" />
  <text x="670" y="185" font-family="Arial" font-size="14" text-anchor="middle" fill="#4c6ef5">Edit</text>
  
  <!-- Password Details Section -->
  <line x1="230" y1="230" x2="720" y2="230" stroke="#e1e5eb" stroke-width="1" />
  
  <!-- Password Field -->
  <text x="230" y="270" font-family="Arial" font-size="14" font-weight="bold" fill="#666">Password</text>
  <rect x="230" y="280" width="440" height="40" rx="5" fill="#f8f9fa" stroke="#d0d7de" stroke-width="1" />
  <text x="250" y="305" font-family="Arial" font-size="14" fill="#333">••••••••••••••••••</text>
  <rect x="680" y="280" width="40" height="40" rx="5" fill="#ffffff" stroke="#d0d7de" stroke-width="1" />
  <circle cx="700" cy="300" r="8" fill="white" stroke="#666" stroke-width="1" />
  <line x1="700" y1="295" x2="700" y2="305" stroke="#666" stroke-width="1" />
  <line x1="695" y1="300" x2="705" y2="300" stroke="#666" stroke-width="1" />
  
  <!-- Website Field -->
  <text x="230" y="350" font-family="Arial" font-size="14" font-weight="bold" fill="#666">Website</text>
  <rect x="230" y="360" width="490" height="40" rx="5" fill="#f8f9fa" stroke="#d0d7de" stroke-width="1" />
  <text x="250" y="385" font-family="Arial" font-size="14" fill="#333">https://accounts.google.com</text>
  
  <!-- Username Field -->
  <text x="230" y="430" font-family="Arial" font-size="14" font-weight="bold" fill="#666">Username</text>
  <rect x="230" y="440" width="490" height="40" rx="5" fill="#f8f9fa" stroke="#d0d7de" stroke-width="1" />
  <text x="250" y="465" font-family="Arial" font-size="14" fill="#333">myemail@gmail.com</text>
  
  <!-- Password Strength -->
  <text x="230" y="510" font-family="Arial" font-size="14" font-weight="bold" fill="#666">Password Strength</text>
  <rect x="230" y="520" width="490" height="10" rx="5" fill="#f8f9fa" stroke="#d0d7de" stroke-width="1" />
  <rect x="230" y="520" width="350" height="10" rx="5" fill="#4c6ef5" />
  <text x="230" y="550" font-family="Arial" font-size="14" fill="#666">Strong</text>
  
  <!-- Tags -->
  <text x="600" y="510" font-family="Arial" font-size="14" font-weight="bold" fill="#666">Tags</text>
  <rect x="600" y="520" width="80" height="25" rx="12" fill="#edf2ff" />
  <text x="640" y="537" font-family="Arial" font-size="12" text-anchor="middle" fill="#4c6ef5">Work</text>
  <rect x="690" y="520" width="40" height="25" rx="12" fill="#e1e5eb" />
  <text x="710" y="537" font-family="Arial" font-size="12" text-anchor="middle" fill="#666">+</text>
</svg>